<?xml version="1.0" encoding="utf-8"?>
<!-- Generator: Adobe Illustrator 16.0.0, SVG Export Plug-In . SVG Version: 6.00 Build 0)  -->
<!DOCTYPE svg PUBLIC "-//W3C//DTD SVG 1.1//EN" "http://www.w3.org/Graphics/SVG/1.1/DTD/svg11.dtd">
<svg version="1.1" id="Capa_1" xmlns="http://www.w3.org/2000/svg" xmlns:xlink="http://www.w3.org/1999/xlink" x="0px" y="0px"
	 width="592.034px" height="598.47px" viewBox="3.245 90.552 592.034 598.47" enable-background="new 3.245 90.552 592.034 598.47"
	 xml:space="preserve">
<g>
	<path fill="none" stroke="#FFFFFF" stroke-width="5" stroke-miterlimit="10" d="M319.261,514.723
		c-1.381,8.287-2.254,13.518-2.701,16.206c-0.744,4.459-1.486,8.921-2.229,13.38c-0.461,2.75-2.861,13.755-1.946,14.117
		c1.152,0.461,3.046-4.454,3.874-6.351c1.923-4.402,3.143-6.092,5.197-10.209c1.791-3.586,2.893-5.775,3.899-7.468
		c2.027-3.403,3.215-5.668,4.636-7.764c2.312-3.412,4.13-6.25,5.974-8.208c1.31-1.389,3.111-2.289,4.946-1.962
		c1.775,0.318,2.208,3.297,2.285,4.567c0.284,4.904,0.327,8.973-0.076,14.865l-1.025,12.118c0,0,0.042,4.082,0.121,4.494
		c0.329,1.72,1.708,1.397,1.924,1.105c1.598-2.142,6.017-12.842,6.754-14.536c1.705-3.917,3.729-7.9,7.467-13.112
		c1.43-1.992,6.128-5.531,8.216-4.397c3.86,2.092,3.362,10.878,3.23,12.013c-0.85,7.356-2.479,17.021-3.411,24.076"/>
	<path fill="none" stroke="#FFFFFF" stroke-width="5" stroke-miterlimit="10" d="M259.385,516.687
		c-0.935,11.206-4.138,41.399-4.138,41.399c0.115,0.563-0.344,0.906,0.115,0.563c2.562-1.913,5.528-10.373,5.528-10.373
		s2.617-5.712,3.494-7.784c0.719-1.702,1.884-4.354,2.697-6.01c0.844-1.714,3.47-6.218,4.563-7.786
		c0.713-1.022,3.023-3.963,3.023-3.963s2.894-2.796,4.148-3.146c0.845-0.236,2.148-0.107,2.752,0.531
		c0.831,0.883,1.005,4.345,0.98,5.559c-0.18,8.629-0.98,33.876-0.98,33.876"/>
	
		<line fill="none" stroke="#FFFFFF" stroke-width="5" stroke-miterlimit="10" x1="300.286" y1="515.687" x2="298.817" y2="561.295"/>
	<path fill="none" stroke="#FFFFFF" stroke-width="5" stroke-miterlimit="10" d="M218.172,560.464c0,0,2.851-13.393,4.222-18.177
		c0.607-2.118,2.033-5.813,2.881-7.846c0.414-0.994,1.737-4.625,2.952-7.103c0.959-1.956,3.445-6.297,4.488-7.626
		c1.915-2.44,3.84-4.061,5.985-3.767c1.311,0.181,1.571,2.228,2.36,4.058c0.327,0.76,0.854,5.361,0.889,6.191
		c0.507,12.324-0.123,29.215-0.4,34.269"/>
	
		<line fill="none" stroke="#FFFFFF" stroke-width="5" stroke-miterlimit="10" x1="223.313" y1="543.637" x2="240.538" y2="543.637"/>
	<g>
		<path fill="#FDABB1" d="M314.958,200.827c0.271-7.736-1.533-12.2-3.269-21.889c-1.045-5.845-4.463-10.942-7.673-15.749
			c-6.29-9.419-12.171-11.521-22.537-16.095c-10.871-4.796-22.769-4.076-33.887-0.408c-9.331,3.079-17.421,10.181-20.991,18.825
			c-2.521,6.102-4.65,8.073-11.011,7.872c-7.926-0.251-12.045-1.975-20.719,3.853c-14.482,9.729-13.078,25.702-14.551,27.016
			c-1.564,1.395-12.443,2.856-19.234,11.873c-3.865,5.134-8.553,13.601-9.046,19.918c-0.501,6.426,4.538,12.424,4.007,18.873
			c-0.439,5.329-6.046,5.188-9.415,8.379c-7.828,7.427-9.11,14.003-7.981,24.5c0.757,7.027,4.201,14.028,8.787,19.342
			c3.306,3.829,12.441,10.896,12.741,12.29c0.54,2.509-4.429,14.351-2.38,21.525c3.577,12.509,10.701,17.712,22.428,22.24
			c3.057,1.18,14.155,1.233,20.483-1.535c1.564,9.711,8.528,20.117,13.013,23.932c7.277,6.196,22.265,8.457,31.541,7.729
			c7.085-0.555,20.7-12.854,20.7-12.854c4.948,1.531,10.376,17.419,29.737,17.419c6.647,0,19.933-3.038,25.394-6.617
			c1.445-0.946,11.104-8.707,10.277-9.681c2.155,2.537,7.086,4.299,10.463,5.052c5.106,1.146,11.104,2.135,16.344,2.135
			c12.754,0,21.467-6.926,31.143-14.077c4.316-3.194,6.019-9.224,9.646-7.863c13.022,4.886,25.912-3.729,33.414-13.883
			c7.047-9.532,6.289-15.393,3.168-26.92c-2.851-10.529,3.254-10.06,9.85-17.428c12.111-13.525,9.33-37.828-3.973-49.264
			c-7.629-6.558-1.182-11.036,1.024-19.173c4.054-14.929-6.663-33.397-23.215-31.655c-0.256-10.096-6.616-28.915-16.45-33.899
			c-9.726-4.933-20.646-8.441-31.675-7.325c-5.754,0.583-8.928,7.909-9.342,2.128c-0.543-7.621-6.381-12.988-10.229-16.318
			c-6.248-5.414-14.834-8.293-22.99-8.854c-4.633-0.321-10.471-0.729-15.086-0.125c-6.7,0.875-14.295,4.067-18.377,8.286"/>
		<g>
			<path fill="#FD7D8B" d="M319.958,200.827c0.102-5.597-0.907-10.973-2.084-16.42c-1.557-7.195-3.035-13.38-6.92-19.734
				c-6.176-10.104-13.501-15.981-24.23-20.702c-13.384-5.889-26.472-6.518-40.459-2.106c-11.987,3.781-19.815,12.487-25.048,23.49
				c-2.114,4.444-6.801,2.994-10.985,2.705c-5.945-0.411-11.136,0.91-16.306,3.852c-9.229,5.252-14.907,14.581-17.056,24.767
				c-0.293,1.39-0.498,2.798-0.736,4.199c-0.499,2.931,1.334-0.7,1.165-0.635c-4.343,1.667-8.601,3.17-12.536,5.721
				c-9.593,6.217-16.395,18.916-17.719,30.079c-0.521,4.38,1.547,8.895,2.958,12.911c0.635,1.807,1.352,3.914,1.014,5.855
				c-0.146,0.835-3.374,1.915-4.073,2.261c-7.101,3.518-12.064,12-13.231,19.609c-1.382,9.013,0.554,18.172,4.716,26.195
				c3.825,7.373,10.301,12.276,16.239,17.803c1.631,1.519,0.771,1.499,0.558-0.807c0.081,0.865-0.524,2.624-0.783,3.69
				c-0.908,3.758-1.672,7.5-2.055,11.353c-0.792,7.983,3.339,16.138,8.406,22.029c9.847,11.449,27.456,15.014,41.251,9.534
				c-2.05-1.164-4.101-2.328-6.15-3.492c1.78,9.412,6.781,18.716,13.571,25.482c6.152,6.132,15.875,8.417,24.191,9.43
				c8.251,1.005,15.09,0.663,22.323-3.639c4.825-2.87,9.353-6.51,13.525-10.259c-1.622,0.429-3.243,0.857-4.865,1.286
				c-0.691-0.265,0.135,0.302,0.661,0.833c0.84,0.848,1.605,1.774,2.387,2.675c2.229,2.563,4.55,4.975,7.241,7.059
				c7.269,5.63,16.111,7.731,25.199,6.718c7.912-0.882,17.646-2.658,24.203-7.496c4.212-3.108,13.236-8.621,11.866-14.818
				c-2.785,1.622-5.57,3.243-8.355,4.865c3.817,3.823,9.058,5.554,14.227,6.676c6.886,1.496,14.094,2.483,21.12,1.606
				c6.083-0.76,11.666-3.116,16.928-6.186c5.366-3.131,11.46-7.051,15.563-11.753c0.799-0.915,1.51-1.919,2.263-2.872
				c1.151-1.457-1.545-1.354,1.261-0.416c2.854,0.955,6.071,1.118,9.05,1.006c6.543-0.244,12.779-3.235,17.972-7.033
				c9.113-6.667,17.003-17.177,16.566-28.897c-0.1-2.66-0.669-5.342-1.239-7.932c-0.563-2.555-2.102-5.682-1.722-8.333
				c0.229-1.6,2.111-2.693,3.272-3.622c2.405-1.924,4.669-3.862,6.675-6.213c7.119-8.342,9.357-19.955,7.85-30.607
				c-0.743-5.242-2.386-10.143-4.819-14.84c-1.18-2.276-2.748-4.303-4.331-6.306c-1.403-1.776-5.494-4.193-5.669-6.48
				c-0.148-1.957,1.721-4.54,2.502-6.233c1.127-2.443,1.98-4.933,2.486-7.576c1.013-5.295,0.445-10.783-1.188-15.889
				c-3.788-11.848-14.682-20.653-27.367-19.712c1.667,1.667,3.333,3.333,5,5c-0.536-12.46-5.54-27.381-15.243-35.687
				c-6.016-5.148-15.184-7.865-22.761-9.548c-7.838-1.741-16.912-2.488-23.605,2.596c-0.437,0.349-0.884,0.682-1.341,0.999
				c4.349,3.909,6.116,4.259,5.308,1.051c-0.229-1.921-0.715-3.661-1.428-5.455c-1.336-3.362-3.456-6.205-5.849-8.887
				c-5.411-6.071-12.516-10.16-20.227-12.536c-15.138-4.666-35.621-3.589-47.539,7.826c-4.665,4.468,2.417,11.53,7.071,7.071
				c10.145-9.717,28.509-8.572,40.81-4.268c6.063,2.122,11.771,6.844,15.293,12.189c2.66,4.038,1.235,12.762,8.07,12.762
				c1.896,0,3.438-1.009,4.877-2.117c2.841-2.188,5.065-2.43,8.648-2.415c8.345,0.034,16.573,3.184,23.939,6.838
				c9.285,4.606,13.566,20.087,13.975,29.582c0.11,2.565,2.195,5.208,5,5c10.71-0.794,18.064,8.033,19.008,18.193
				c0.929,10.009-10.295,19.739-2.491,28.934c3.581,4.22,7.131,7.298,9.564,12.434c2.435,5.135,3.013,11.094,2.682,16.689
				c-0.3,5.046-2.195,10.322-5.295,14.323c-3.104,4.004-8.313,6.228-10.941,10.567c-5.87,9.692,4.319,20.471-0.483,30.665
				c-2.67,5.667-7.524,10.552-12.673,13.999c-6.396,4.284-12.038,4.085-19.179,2.506c-5.022-1.11-8.097,3.169-10.822,6.574
				c-3.929,4.909-10.766,8.723-16.223,11.705c-5.998,3.278-12.365,3.968-19.078,3.43c-5.604-0.449-14.191-1.269-18.396-5.478
				c-3.668-3.673-9.411,0.091-8.355,4.865c1.219-3.427,1.253-4.405,0.101-2.934c-0.399,0.421-0.813,0.831-1.235,1.229
				c-0.979,0.948-2.022,1.831-3.059,2.717c-1.769,1.513-3.495,2.927-5.547,4.028c-6.486,3.48-15.305,5.054-22.607,4.896
				c-6.919-0.15-12.573-3.761-17.193-8.61c-3.044-3.195-5.443-6.961-9.716-8.598c-1.686-0.646-3.62,0.167-4.865,1.286
				c-3.003,2.698-6.196,5.171-9.536,7.438c-5.591,3.795-9.775,4.364-16.469,3.838c-6.656-0.523-14.789-2.207-19.892-6.808
				c-5.798-5.229-9.575-13.541-11-21.07c-0.469-2.474-3.76-4.442-6.15-3.492c-10.077,4.002-19.495,2.17-28.179-3.862
				c-4.084-2.837-6.585-7.346-8.153-11.939c-1.771-5.187,0.051-10.76,1.288-15.878c0.851-3.52,1.574-6.978-1.03-9.928
				c-3.067-3.476-6.9-6.3-10.264-9.484c-8.289-7.85-13.265-22.708-7.484-33.343c2.723-5.008,6.94-6.177,11.124-9.337
				c4.997-3.774,4.891-9.757,3.417-15.328c-0.773-2.928-2.054-5.699-2.837-8.631c-0.776-2.909,0.33-5.854,1.305-8.563
				c2.115-5.886,6.109-12.281,11.238-15.943c5.167-3.688,14.626-3.796,15.966-11.063c1.774-9.619,4.5-17.432,13.197-22.989
				c9.724-6.212,21.895,2.215,29.775-8.248c1.509-2.003,2.258-4.587,3.376-6.808c1.552-3.083,3.843-5.614,6.35-7.943
				c5.604-5.207,13.582-7.558,21.002-8.519c12.368-1.601,27.767,3.362,36.723,12.293c4.901,4.887,9.207,12.204,10.67,18.946
				c1.468,6.761,3.216,13.606,3.09,20.56C309.841,207.279,319.842,207.268,319.958,200.827L319.958,200.827z"/>
		</g>
	</g>
	<g>
		<g>
			<path fill="#FD7D8B" d="M227.824,214.438c4.187-5.52,12.088-6.429,18.199-3.649c5.823,2.648,10.91-5.968,5.047-8.635
				c-11.569-5.263-24.125-2.988-31.881,7.237C215.29,214.533,223.98,219.506,227.824,214.438L227.824,214.438z"/>
		</g>
	</g>
	<g>
		<g>
			<path fill="#FD7D8B" d="M256.437,179.48c3.34-3.665,12.153-3.398,15.791-0.544c5.013,3.931,12.143-3.094,7.071-7.071
				c-7.775-6.098-22.608-7.494-29.934,0.544C245.033,177.164,252.084,184.256,256.437,179.48L256.437,179.48z"/>
		</g>
	</g>
	<g>
		<g>
			<path fill="#FD7D8B" d="M357.656,213.855c3.977-0.557,7.721-0.981,11.578,0.335c3.104,1.059,7.43,2.509,9.688,4.911
				c4.424,4.708,11.48-2.377,7.069-7.071c-3.292-3.504-8.23-5.202-12.631-6.912c-6.147-2.39-11.943-1.805-18.361-0.906
				C348.634,205.104,351.352,214.738,357.656,213.855L357.656,213.855z"/>
		</g>
	</g>
	<g>
		<g>
			<path fill="#FD7D8B" d="M385.963,327.741c6.784-1.419,14.102-3.962,18.988-9.179c1.709-1.824,3.159-3.895,4.597-5.935
				c0.723-1.027,1.424-2.069,2.128-3.108c0.173-0.256,1.842-2.448,0.674-1.057c-1.621,0.428-3.243,0.857-4.864,1.286
				c0.012,0.001,0.022,0.003,0.034,0.005c-1.164-2.05-2.328-4.101-3.492-6.151c0.08-0.208,0.16-0.417,0.24-0.625
				c-2.858,5.756,5.767,10.823,8.635,5.047c0.285-0.575,0.532-1.166,0.769-1.764c0.908-2.306-0.983-5.802-3.492-6.151
				c-5.201-0.722-7.311,4.695-9.852,8.303c-4.062,5.768-10.31,8.282-17.021,9.687C376.993,319.418,379.671,329.057,385.963,327.741
				L385.963,327.741z"/>
		</g>
	</g>
	<g>
		<g>
			<path fill="#FD7D8B" d="M195.823,312.046c2.395,12.511,15.789,20.645,27.684,21.089c6.451,0.241,6.428-9.76,0-10
				c-7.746-0.29-16.486-5.624-18.041-13.747C204.254,303.059,194.617,305.746,195.823,312.046L195.823,312.046z"/>
		</g>
	</g>
	<g>
		<g>
			<path fill="#FD7D8B" d="M183.806,239.348c-6.328,14.166-3.769,28.306,7.042,39.265c4.534,4.596,11.604-2.479,7.071-7.071
				c-7.423-7.523-9.95-17.138-5.479-27.146C195.048,238.561,186.432,233.469,183.806,239.348L183.806,239.348z"/>
		</g>
	</g>
	<g>
		<path fill="#FD7D8B" d="M427.821,355.219c9.722-5.469,19.373-11.106,28.519-17.507c4.434-3.102,8.155-6.294,12.125-9.983
			c5.737-5.331,7.059-7.111,11.885-13.247c2.26-2.875,4.715-6.105,9.891-17.147c3.34-7.126,4.361-10.133,7.32-16.098
			c3.652-7.363,10.018-12.718,15.01-19.11c4.234-5.423,7.138-17.776,3.164-23.871c-1.469-2.254-5.092-5.212-7.51-6.432
			c-2.83-1.427-7.639-1.938-10.465-0.273c-3.334,1.966-5.359,8.748-6.701,9.808c-1.787,1.412-13.967-5.954-15.266,3.933
			c-1.56,11.864,12.51,21.685,8.276,32.267c-4.354,10.887-11.547,23.578-22.817,36.356c-7.201,8.164-13.199,9.551-21.91,16.627"/>
	</g>
	<g>
		<path fill="#FD7D8B" d="M334.009,385.819c1.955,19.597,3.389,43.171,3.539,60.806c0.092,10.613-2.369,25.273-2.365,32.994
			c0.002,3.074,22.16,1.648,26.316,2.541c4.897,1.088,9.254,0.906,11.977-5.082c2.721-5.988-6.895-7.619-10.705-8.707
			c-4.897-1.633-15.301,3.92-18.146-0.908c-0.625-1.061-1.027-5.146,0.272-22.607c1.223-16.432-0.17-42.276-2.348-58.062"/>
		<g>
			<path fill="#FD7D8B" d="M331.509,385.819c2.69,27.318,4.778,54.841,2.002,82.208c-0.308,3.002-2.303,10.426-0.43,13.113
				c1.543,2.211,4.356,2.404,6.832,2.697c7.756,0.916,15.59,0.014,23.319,1.15c4.121,0.604,7.736-0.488,10.519-3.611
				c2.401-2.699,3.959-7.334,1.151-10.316c-5.731-6.098-15.225-5.629-22.641-4.355c-1.48,0.254-5.139,0.473-5.426-0.387
				c-0.193-0.578-0.201-1.205-0.24-1.807c-0.271-4.227,0.084-8.525,0.33-12.744c0.752-12.922,1.088-25.66,0.457-38.604
				c-0.441-9.04-1.217-18.066-2.422-27.036c-0.431-3.183-5.246-1.822-4.822,1.329c1.646,12.24,2.369,24.624,2.648,36.965
				c0.264,11.672-0.854,23.205-1.212,34.854c-0.131,4.322-0.809,9.736,3.777,11.975c3.516,1.717,8.221,0.277,11.832-0.357
				c4.199-0.738,8.787,0.463,12.564,2.389c4.078,2.078-0.722,6.543-3.574,6.875c-1.863,0.219-3.748-0.402-5.59-0.631
				c-3.476-0.43-7.082-0.229-10.574-0.266c-3.875-0.039-7.873,0.029-11.697-0.666c-1.416-0.258-0.613-0.43-0.619-0.02
				c0.017-1.188,0.104-2.371,0.183-3.555c0.188-2.84,0.498-5.674,0.785-8.504c2.721-26.809,0.479-53.943-2.154-80.696
				C336.194,382.641,331.192,382.61,331.509,385.819L331.509,385.819z"/>
		</g>
	</g>
	<g>
		<path fill="#FD7D8B" d="M263.586,382.512c-1.226,28.851-1.142,54.454,0.006,65.974c0.923,9.273,4.563,22.713,3.242,31.889
			c-0.34,2.365-9.594,2.857-18.303,1.768c-3.812-1.088-6.209,0.396-11.5,0.205c-2.931-0.105-10.751,0.408-12.385-1.77
			c-3.267-4.898,0.816-11.771,7.961-12.725c5.96-0.795,15.241,3.402,19.597-1.496c4.898-4.9,3.229-17.92,2.685-24.451
			c0-9.799-1.323-14.334-0.779-24.133c0.545-10.343,0.772-14.379-0.316-24.177"/>
		<g>
			<path fill="#FD7D8B" d="M261.086,382.512c-0.896,21.596-1.928,43.589-0.07,65.167c0.435,5.045,1.42,10.037,2.244,15.025
				c0.275,1.666,3.107,15.928,0.916,16.758c-5.105,1.932-11.675,0.438-16.869-0.094c-4.227-0.432-8.675,0.455-12.949,0.463
				c-2.037,0.004-4.086-0.01-6.104-0.322c-3.472-0.539-2.188-4.561-0.707-6.408c3.637-4.537,10.608-2.48,15.461-1.957
				c8.964,0.971,14.059-4.479,14.86-13.113c0.924-9.939-0.567-20.42-1.221-30.352c-0.749-11.397,0.862-22.661-0.355-34.083
				c-0.338-3.171-5.342-3.205-5,0c1.317,12.356-0.349,24.609,0.557,36.96c0.412,5.643,0.578,11.281,1.018,16.92
				c0.405,5.225,1.29,12.84-2.43,17.111c-3.373,3.873-12.244,0.68-16.674,0.672c-4.06-0.008-8.715,2.209-10.879,5.73
				c-2.169,3.527-2.417,7.201-0.396,10.85c1.81,3.26,7.705,2.941,10.772,2.988c4.698,0.07,10.055-1.293,14.605-0.275
				c5.234,1.17,11.417,0.951,16.672-0.016c4.042-0.744,4.798-3.189,5.045-6.895c0.433-6.457-0.969-13.139-2.036-19.473
				c-4.175-24.773-2.498-50.684-1.461-75.66C266.22,379.287,261.219,379.299,261.086,382.512L261.086,382.512z"/>
		</g>
	</g>
	
		<ellipse transform="matrix(-0.0579 -0.9983 0.9983 -0.0579 -6.8445 533.7592)" cx="248.427" cy="270.109" rx="22.271" ry="17.735"/>
	<path d="M380.533,265.586c1.078,12.252-5.957,22.882-15.713,23.74c-9.764,0.859-18.545-8.38-19.623-20.631
		c-1.078-12.252,5.959-22.879,15.72-23.738C370.675,244.099,379.456,253.335,380.533,265.586z"/>
	<g>
		<g>
			<path d="M272.807,309.323c8.188,10.06,19.943,14.033,32.527,14.991c13.472,1.025,26.21-6.311,34.966-16.079
				c4.291-4.786-2.758-11.882-7.07-7.071c-7.256,8.093-16.768,13.766-27.896,13.15c-10.061-0.557-19.022-4.157-25.457-12.062
				C275.805,297.248,268.773,304.368,272.807,309.323L272.807,309.323z"/>
		</g>
	</g>
	<g>
		<path fill="#FD7D8B" d="M106.552,310.188c-2.224-3.302-4.277-6.655-6.167-9.942c-3.183-5.537-3.849-12.326-6.51-18.218
			c-3.328-7.365-9.122-12.72-13.67-19.111c-3.855-5.424-6.5-17.777-2.881-23.871c1.337-2.254,4.637-5.213,6.84-6.432
			c2.577-1.427,7.025-2.042,9.529-0.273c5.7,4.027,4.861,9.201,6.244,9.531c3.292,0.787,12.579-5.678,13.764,4.209
			c1.418,11.864-11.394,21.684-7.54,32.267c3.62,9.94,8.697,21.854,16.002,29.674c7.307,7.822,23.977,19.547,35.68,23.357
			c3.783,1.231-0.848,2.875-0.504,6.732c0.283,3.158-0.102,4.604-0.244,7.672c-3.833,0.376-12.147-3.376-15.558-4.84
			c-4.317-1.852-8.288-4.365-12.226-6.906C120.325,328.242,112.773,319.422,106.552,310.188z"/>
	</g>
	<path fill="none" stroke="#FFFFFF" stroke-width="5" stroke-miterlimit="10" d="M185.489,558.403
		c2.526,0.279,8.802-1.224,11.543-3.379c4.15-3.262,5.84-4.598,8.299-9.537c3.698-7.429,4.813-14.817,4.814-19.977
		c0.001-5.025-2.737-7.312-4.549-8.212c-4.06-2.017-14.957-0.759-14.957-0.759c-0.225,1.5-3.264,41.057-3.264,43.242"/>
	<path fill="none" stroke="#FFFFFF" stroke-width="5" stroke-miterlimit="10" d="M389.409,519.939
		c-1.196,1.922-3.116,5.725-4.001,8.227c-0.653,1.848-1.936,7.693-2.1,9.104c-0.338,2.928-0.617,6.509-0.647,8.614
		c-0.058,4.169,1.295,9.743,2.928,11.374c2.682,2.682,5.984,2.885,9.259,1.658c1.636-0.612,3.916-3.069,4.304-3.551
		c1.905-2.367,3.718-5.839,4.756-8.223c1.775-4.073,2.965-10.61,3.14-14.38c0.146-3.185,0.138-2.616-1.012-7.716
		c-0.25-1.743-1.817-4.769-2.708-5.734c-1.899-2.059-3.743-2.771-6.029-2.979c-2.085-0.188-4.872,0.319-6.499,1.546
		c-2.559,1.929-1.592,5.504,1.045,7.588c1.971,1.561,7.973,2.604,10.299,2.453c7.782-0.507,9.164-0.822,14.374-6.59"/>
	<g>
		<g>
			<path fill="#FFFFFF" d="M415.865,524.456c3.226,0,3.226-5,0-5C412.641,519.456,412.642,524.456,415.865,524.456L415.865,524.456z
				"/>
		</g>
	</g>
	<g>
		<g>
			<path fill="#FFFFFF" d="M366.306,560.405c3.225,0,3.225-5,0-5C363.08,555.405,363.08,560.405,366.306,560.405L366.306,560.405z"
				/>
		</g>
	</g>
	<g>
		<g>
			<path fill="#FFFFFF" d="M281.573,562.286c3.439,0,3.439-5,0-5S278.133,562.286,281.573,562.286L281.573,562.286z"/>
		</g>
	</g>
	
		<ellipse transform="matrix(0.204 -0.979 0.979 0.204 -52.0255 460.3259)" fill="#F4F4F4" cx="257.067" cy="262.156" rx="5.035" ry="4.127"/>
	
		<ellipse transform="matrix(0.2041 -0.9789 0.9789 0.2041 40.7172 572.4885)" fill="#F4F4F4" cx="372.447" cy="261.203" rx="5.035" ry="4.127"/>
	<path fill="#FFFFFF" stroke="#1E120D" stroke-width="5" stroke-miterlimit="10" d="M183.137,564.988"/>
</g>
</svg>
